<?xml version="1.0" encoding="UTF-8" standalone="no"?>
<!-- Created with Inkscape (http://www.inkscape.org/) -->

<svg
   width="63.775066mm"
   height="13.224043mm"
   viewBox="0 0 63.775066 13.224043"
   version="1.1"
   id="svg5"
   inkscape:version="1.1.1 (3bf5ae0d25, 2021-09-20)"
   sodipodi:docname="tryinglogo.svg"
   inkscape:export-filename="C:\Users\L\Desktop\UNI DISSO\images\tryinglogo.png"
   inkscape:export-xdpi="96"
   inkscape:export-ydpi="96"
   xmlns:inkscape="http://www.inkscape.org/namespaces/inkscape"
   xmlns:sodipodi="http://sodipodi.sourceforge.net/DTD/sodipodi-0.dtd"
   xmlns="http://www.w3.org/2000/svg"
   xmlns:svg="http://www.w3.org/2000/svg">
  <sodipodi:namedview
     id="namedview7"
     pagecolor="#ffffff"
     bordercolor="#666666"
     borderopacity="1.0"
     inkscape:pageshadow="2"
     inkscape:pageopacity="0.0"
     inkscape:pagecheckerboard="0"
     inkscape:document-units="mm"
     showgrid="false"
     inkscape:zoom="2.9647587"
     inkscape:cx="106.41675"
     inkscape:cy="31.874432"
     inkscape:window-width="1920"
     inkscape:window-height="1017"
     inkscape:window-x="-8"
     inkscape:window-y="-8"
     inkscape:window-maximized="1"
     inkscape:current-layer="layer2"
     fit-margin-top="0"
     fit-margin-left="0"
     fit-margin-right="0"
     fit-margin-bottom="0" />
  <defs
     id="defs2" />
  <g
     inkscape:groupmode="layer"
     id="layer2"
     inkscape:label="AnOpinion"
     transform="translate(-91.553449,-61.48094)">
    <g
       inkscape:groupmode="layer"
       id="layer3"
       inkscape:label="person"
       style="display:inline">
      <g
         id="g22719"
         transform="translate(6.5419503,-19.090301)">
        <path
           style="fill:#000000;fill-opacity:1;stroke:#000000;stroke-width:0.264583px;stroke-linecap:butt;stroke-linejoin:miter;stroke-opacity:1"
           d="m 85.198531,88.519388 c 0.05522,-0.149871 1.766917,-3.928234 1.766917,-3.928234 l 0.631041,-0.504833 2.334856,-0.04733 0.773025,0.804579 1.506614,3.699481 h -0.891347 l -1.19898,-2.334852 -0.05522,1.885235 0.694147,5.324417 -0.552161,0.189312 -0.575826,-0.378627 -0.678371,-4.330522 -0.441729,-0.0079 -0.670481,4.401518 -0.44173,0.323408 -0.670483,-0.197199 0.67837,-5.284975 0.07888,-1.972006 -1.293636,2.397959 z"
           id="path22633" />
        <path
           style="fill:#000000;fill-opacity:1;stroke:#000000;stroke-width:0.264583px;stroke-linecap:butt;stroke-linejoin:miter;stroke-opacity:1"
           d="m 88.322189,83.363097 0.851905,0.01577 0.788802,-0.851908 -0.02365,-1.072772 -0.654705,-0.74936 -1.104322,0.02368 -0.615268,0.812466 -0.01577,1.049107 z"
           id="path22635"
           sodipodi:nodetypes="ccccccccc" />
      </g>
    </g>
    <g
       id="g2633"
       inkscape:label="an text"
       style="stroke:#414141;stroke-width:0.25;stroke-miterlimit:4;stroke-dasharray:none;stroke-opacity:1">
      <path
         id="path23985"
         style="fill:none;stroke:#414141;stroke-width:0.25;stroke-linecap:butt;stroke-linejoin:miter;stroke-miterlimit:4;stroke-dasharray:none;stroke-opacity:1"
         d="m 103.979,72.219726 -2.77768,-0.07809 m -0.70279,2.4988 2.0749,-7.395995 2.07489,7.40715" />
      <path
         style="fill:none;stroke:#414141;stroke-width:0.25;stroke-linecap:butt;stroke-linejoin:miter;stroke-miterlimit:4;stroke-dasharray:none;stroke-opacity:1"
         d="m 106.48896,74.651591 0.0112,-7.395995 3.34661,7.38484 0.0223,-7.373686"
         id="path23987" />
    </g>
    <g
       id="g1369"
       inkscape:label="opinion text"
       style="stroke:#000000;stroke-width:0.5;stroke-miterlimit:4;stroke-dasharray:none;stroke-opacity:1">
      <path
         style="fill:none;stroke:#000000;stroke-width:0.5;stroke-linecap:butt;stroke-linejoin:miter;stroke-miterlimit:4;stroke-dasharray:none;stroke-opacity:1"
         d="m 120.56054,74.368275 c 0,-0.0631 0,-9.670713 0,-9.670713 l 2.60305,-0.110432 1.84579,3.738922 -1.43562,2.539942 -3.00675,-0.0072"
         id="path23991" />
      <path
         style="fill:none;stroke:#000000;stroke-width:0.5;stroke-linecap:butt;stroke-linejoin:miter;stroke-miterlimit:4;stroke-dasharray:none;stroke-opacity:1"
         d="m 112.51475,67.1744 -0.15776,3.723145 0.82036,2.71348 1.78267,0.820356 1.90892,-0.820356 c 0,0 0.75725,-2.839689 0.82036,-2.965895 0.0631,-0.126209 -0.41018,-4.164877 -0.41018,-4.164877 l -2.42951,-2.019332 z"
         id="path866" />
      <path
         style="fill:none;stroke:#000000;stroke-width:0.5;stroke-linecap:butt;stroke-linejoin:miter;stroke-miterlimit:4;stroke-dasharray:none;stroke-opacity:1"
         d="m 127.88062,64.871096 -0.0315,9.21321"
         id="path872" />
      <path
         style="fill:none;stroke:#000000;stroke-width:0.5;stroke-linecap:butt;stroke-linejoin:miter;stroke-miterlimit:4;stroke-dasharray:none;stroke-opacity:1"
         d="m 131.25669,74.494484 0.12621,-10.12822 4.4804,10.191323 V 64.271606"
         id="path874" />
      <path
         style="fill:none;stroke:#000000;stroke-width:0.5;stroke-linecap:butt;stroke-linejoin:miter;stroke-miterlimit:4;stroke-dasharray:none;stroke-opacity:1"
         d="M 139.30248,64.397815 V 74.589139"
         id="path876" />
      <path
         style="fill:none;stroke:#000000;stroke-width:0.5;stroke-linecap:butt;stroke-linejoin:miter;stroke-miterlimit:4;stroke-dasharray:none;stroke-opacity:1"
         d="m 144.66633,64.650233 -2.17709,1.640708 -0.34708,5.048334 1.10433,2.461062 1.83002,0.59949 2.11399,-1.135875 0.37862,-2.461061 -0.69414,-5.458513 z"
         id="path878" />
      <path
         style="fill:none;stroke:#000000;stroke-width:0.5;stroke-linecap:butt;stroke-linejoin:miter;stroke-miterlimit:4;stroke-dasharray:none;stroke-opacity:1"
         d="m 150.47192,74.494484 0.15776,-10.12822 4.44884,10.159772 -0.0631,-10.285981"
         id="path880" />
    </g>
  </g>
</svg>
